<svg width="219" height="206" viewBox="0 0 219 206" fill="none" xmlns="http://www.w3.org/2000/svg">
<path d="M119.626 162.646H69.4355V201.358H119.626V162.646Z" fill="#EBEBEB"/>
<path d="M107.053 201.088C106.986 201.088 106.928 192.457 106.928 181.812C106.928 171.166 106.986 162.535 107.053 162.535C107.121 162.535 107.178 171.166 107.178 181.812C107.178 192.457 107.121 201.088 107.053 201.088Z" fill="#E0E0E0"/>
<path d="M115.371 192.548H111.525V196.9H115.371V192.548Z" fill="#FAFAFA"/>
<path d="M90.4515 162.747H84.7505V171.007H90.4515V162.747Z" fill="#E0E0E0"/>
<path d="M90.4515 192.982H84.7505V201.242H90.4515V192.982Z" fill="#E0E0E0"/>
<path d="M210.702 152.94H147.413V201.753H210.702V152.94Z" fill="#EBEBEB"/>
<path d="M194.843 201.406C194.775 201.406 194.717 190.529 194.717 177.108C194.717 163.687 194.775 152.81 194.843 152.81C194.91 152.81 194.968 163.687 194.968 177.108C194.968 190.529 194.915 201.406 194.843 201.406Z" fill="#E0E0E0"/>
<path d="M205.334 190.64H200.481V196.124H205.334V190.64Z" fill="#FAFAFA"/>
<path d="M173.909 153.065H166.719V163.48H173.909V153.065Z" fill="#E0E0E0"/>
<path d="M173.909 191.189H166.719V201.604H173.909V191.189Z" fill="#E0E0E0"/>
<path d="M28.2079 154.376C30.7717 153.056 33.7884 152.883 36.6317 153.355C38.1593 153.605 39.7496 154.063 40.7906 155.21C41.8315 156.357 42.0243 158.376 40.8339 159.364C40.1207 159.952 39.1328 160.039 38.2075 160.029C35.9811 160 33.5137 159.61 31.7355 160.95C30.7187 161.716 30.044 162.983 28.844 163.359C27.6441 163.735 26.3188 163.027 25.6923 161.957C25.1128 160.841 24.985 159.545 25.3357 158.338C25.4776 157.501 25.8106 156.708 26.3087 156.021C26.8069 155.334 27.4568 154.771 28.2079 154.376Z" fill="#EBEBEB"/>
<path d="M22.3384 143.047C23.9046 145.283 26.9503 144.545 28.3623 143.177C29.7743 141.808 30.3718 139.832 30.9116 137.948C32.1549 133.635 33.4031 129.11 32.4826 124.72C32.261 123.388 31.6756 122.144 30.7911 121.125C30.3433 120.624 29.7725 120.249 29.1351 120.037C28.4978 119.825 27.8161 119.783 27.1575 119.915C25.6202 120.32 24.666 121.843 23.9769 123.255C21.9451 127.476 20.8815 132.097 20.8638 136.782C20.8638 138.965 21.1095 141.249 22.3384 143.047" fill="#EBEBEB"/>
<path d="M18.0398 146.256C19.7409 144.237 20.0638 141.298 19.3072 138.768C18.5506 136.238 16.8398 134.088 14.8688 132.329C12.5506 130.267 9.85312 128.676 6.92692 127.645C5.7928 127.187 4.57293 126.98 3.35115 127.038C2.74166 127.073 2.14993 127.256 1.62748 127.572C1.10504 127.888 0.66774 128.326 0.353672 128.85C-0.484851 130.445 0.319938 132.377 1.18737 133.958C2.71494 136.739 4.45837 139.396 6.40164 141.905C7.96784 143.919 9.775 145.909 12.1412 146.82C14.5074 147.731 17.0036 147.625 18.2663 145.972" fill="#EBEBEB"/>
<path d="M22.2322 176.79C22.3159 176.459 22.3644 176.12 22.3768 175.778C22.4491 175.036 22.5358 174.106 22.6466 173.002C22.7848 171.637 22.9923 170.279 23.2683 168.935C23.6304 167.291 24.1252 165.68 24.7478 164.116C25.3584 162.563 26.1841 161.103 27.2007 159.779C28.0318 158.702 29.0897 157.822 30.2994 157.201C31.122 156.795 32.0035 156.522 32.9113 156.391C33.253 156.378 33.5923 156.328 33.9233 156.242C33.5822 156.204 33.238 156.204 32.8969 156.242C31.9542 156.313 31.0319 156.553 30.1741 156.95C28.8967 157.553 27.7766 158.443 26.9019 159.552C25.8379 160.894 24.9803 162.386 24.3574 163.981C23.7356 165.564 23.2519 167.197 22.9117 168.863C22.6495 170.224 22.4677 171.6 22.3671 172.983C22.2804 174.164 22.2467 175.118 22.2322 175.778C22.1967 176.115 22.1967 176.454 22.2322 176.79V176.79Z" fill="#E0E0E0"/>
<path d="M22.425 174.66C22.4536 174.501 22.4633 174.339 22.4539 174.178C22.4539 173.821 22.4539 173.373 22.4539 172.829C22.4539 171.658 22.4539 169.961 22.5117 167.87C22.6178 163.687 22.9936 159.195 23.6731 152.839C24.3334 146.868 25.2153 139.924 26.1502 135.408C26.3477 134.382 26.5501 133.457 26.7429 132.647C26.9357 131.837 27.0754 131.134 27.2248 130.57C27.3742 130.006 27.4561 129.606 27.5429 129.259C27.59 129.103 27.6175 128.941 27.6248 128.777C27.5522 128.918 27.4972 129.067 27.461 129.221C27.3549 129.563 27.2248 129.987 27.0658 130.512C26.9068 131.038 26.714 131.77 26.5116 132.575C26.3092 133.38 26.0779 134.305 25.861 135.331C24.7033 140.672 23.833 146.07 23.2539 151.504C22.5599 157.865 22.2467 163.658 22.2178 167.851C22.2178 169.947 22.2178 171.648 22.2901 172.819C22.3238 173.364 22.3527 173.812 22.372 174.164C22.3696 174.331 22.3874 174.497 22.425 174.66V174.66Z" fill="#E0E0E0"/>
<path d="M22.4538 163.489C22.4906 163.019 22.4906 162.547 22.4538 162.077C22.4008 161.171 22.2755 159.865 22.0201 158.261C21.7049 156.384 21.2834 154.528 20.7575 152.699C20.1498 150.449 19.3716 148.249 18.4299 146.117C16.8175 142.188 14.5036 138.586 11.6012 135.486C11.0977 134.953 10.56 134.454 9.99166 133.992C9.74589 133.78 9.50975 133.572 9.30735 133.409L8.70978 132.98C8.33473 132.693 7.93659 132.439 7.51947 132.218C7.452 132.31 9.20133 133.341 11.4085 135.688C14.216 138.817 16.4684 142.403 18.0685 146.29C18.994 148.408 19.7749 150.587 20.4057 152.81C20.9357 154.622 21.3747 156.458 21.7213 158.314C22.0105 159.899 22.2033 161.205 22.2804 162.092C22.301 162.562 22.359 163.029 22.4538 163.489V163.489Z" fill="#E0E0E0"/>
<path d="M10.9077 181.494L12.0257 196.833H31.731L32.8491 181.494H10.9077Z" fill="#EBEBEB"/>
<path d="M35.1957 175.45H9.00391V181.493H35.1957V175.45Z" fill="#EBEBEB"/>
<path d="M9.00391 196.245V197.917H10.2376H34.7668V196.245H9.00391Z" fill="#E0E0E0"/>
<path d="M11.4426 200.683L10.2378 197.734H33.8273L32.4201 200.683H11.4426Z" fill="#E0E0E0"/>
<path d="M32.4828 186.505C32.4582 186.557 32.4275 186.606 32.3912 186.65C32.3141 186.751 32.2129 186.881 32.0973 187.04L30.9503 188.486L30.8973 188.553L30.8491 188.486L28.03 184.587H28.189L25.4132 188.515L25.3265 188.64L25.2301 188.525L21.9386 184.607H22.1266L21.9483 184.838L19.0038 188.525L18.9026 188.65L18.8159 188.52L16.0352 184.592H16.1991L12.7775 188.486L12.7197 188.558L12.6715 188.476L11.6017 186.703C11.486 186.51 11.3993 186.351 11.327 186.221C11.2906 186.167 11.2615 186.109 11.2402 186.048C11.2853 186.094 11.3242 186.146 11.3559 186.202L11.6595 186.66L12.7823 188.428H12.6763L16.0497 184.486L16.1316 184.385L16.2087 184.491L19.0134 188.404H18.8303L21.7651 184.708C21.8278 184.631 21.8904 184.554 21.9434 184.481L22.0398 184.361L22.1362 184.476L25.418 188.404H25.2349L28.0396 184.496L28.1215 184.38L28.1986 184.496C29.3118 186.081 30.2564 187.426 30.96 188.438H30.8588L32.0539 186.992C32.184 186.843 32.29 186.722 32.372 186.621C32.406 186.58 32.4431 186.541 32.4828 186.505V186.505Z" fill="#F5F5F5"/>
<path d="M33.1235 181.392C33.1235 181.46 28.1839 181.518 22.0974 181.518C16.0109 181.518 11.0713 181.46 11.0713 181.392C11.0713 181.325 16.006 181.272 22.0974 181.272C28.1887 181.272 33.1235 181.325 33.1235 181.392Z" fill="#F5F5F5"/>
<path d="M171.317 7.49573L167.278 7.51758L167.387 27.6129L171.425 27.5911L171.317 7.49573Z" fill="#E0E0E0"/>
<path d="M142.75 7.54913L132.293 7.60571L132.353 18.6991L142.81 18.6425L142.75 7.54913Z" fill="#EBEBEB"/>
<path d="M153.159 7.49298L142.702 7.54956L142.762 18.643L153.219 18.5864L153.159 7.49298Z" fill="#F5F5F5"/>
<path d="M132.305 10.6758C139.258 10.7336 146.213 10.7015 153.172 10.5794C153.202 10.5794 153.23 10.5677 153.25 10.547C153.271 10.5262 153.283 10.498 153.283 10.4686C153.283 10.4392 153.271 10.411 153.25 10.3902C153.23 10.3694 153.202 10.3577 153.172 10.3577C146.223 10.3192 139.255 10.3577 132.305 10.4879C132.284 10.4927 132.265 10.5047 132.251 10.5217C132.238 10.5388 132.23 10.56 132.23 10.5818C132.23 10.6037 132.238 10.6249 132.251 10.6419C132.265 10.659 132.284 10.671 132.305 10.6758V10.6758Z" fill="#E0E0E0"/>
<path d="M144.775 18.4582L125.774 18.561L125.823 27.6015L144.824 27.4987L144.775 18.4582Z" fill="#EBEBEB"/>
<path d="M163.685 18.3559L144.683 18.4587L144.732 27.4992L163.733 27.3964L163.685 18.3559Z" fill="#F5F5F5"/>
<path d="M125.785 21.085C138.406 21.2247 151.071 21.085 163.697 20.897C163.726 20.897 163.754 20.8853 163.775 20.8645C163.796 20.8438 163.808 20.8156 163.808 20.7862C163.808 20.7568 163.796 20.7286 163.775 20.7078C163.754 20.687 163.726 20.6753 163.697 20.6753C151.075 20.6079 138.406 20.6127 125.785 20.8922C125.759 20.8922 125.735 20.9023 125.717 20.9204C125.699 20.9385 125.688 20.963 125.688 20.9886C125.688 21.0141 125.699 21.0387 125.717 21.0567C125.735 21.0748 125.759 21.085 125.785 21.085V21.085Z" fill="#E0E0E0"/>
<path d="M192.293 27.6101H118.677V30.8485H192.293V27.6101Z" fill="#E0E0E0"/>
<path d="M133.717 29.1667H130.729V40.2169H133.717V29.1667Z" fill="#E0E0E0"/>
<path d="M178.328 29.1667H175.34V40.2169H178.328V29.1667Z" fill="#E0E0E0"/>
<path d="M175.257 -0.000121253L171.219 0.0217285L171.368 27.6588L175.407 27.637L175.257 -0.000121253Z" fill="#EBEBEB"/>
<path d="M181.564 5.14647L175.29 5.18042L175.411 27.5792L181.685 27.5453L181.564 5.14647Z" fill="#F5F5F5"/>
<path d="M181.523 9.47093C179.437 9.61825 177.343 9.61825 175.258 9.47093C177.344 9.33 179.437 9.33 181.523 9.47093V9.47093Z" fill="#E0E0E0"/>
<path d="M181.523 8.55532C180.48 8.66079 179.432 8.69621 178.385 8.66134C177.338 8.69602 176.29 8.6606 175.248 8.55532C177.334 8.40799 179.427 8.40799 181.513 8.55532H181.523Z" fill="#E0E0E0"/>
<path d="M181.523 24.1838C179.437 24.3311 177.343 24.3311 175.258 24.1838C177.344 24.0429 179.437 24.0429 181.523 24.1838V24.1838Z" fill="#E0E0E0"/>
<path d="M181.523 23.244C179.437 23.385 177.344 23.385 175.258 23.244C177.343 23.0967 179.437 23.0967 181.523 23.244V23.244Z" fill="#E0E0E0"/>
<path d="M178.487 21.191C178.429 21.191 178.381 18.9308 178.381 16.1454C178.381 13.3599 178.429 11.095 178.487 11.095C178.545 11.095 178.598 13.3551 178.598 16.1454C178.598 18.9356 178.55 21.191 178.487 21.191Z" fill="#E0E0E0"/>
<path d="M188.424 10.6565H181.595V27.5619H188.424V10.6565Z" fill="#EBEBEB"/>
<path d="M173.176 5.89043C173.817 5.89043 174.337 5.37045 174.337 4.72903C174.337 4.0876 173.817 3.56763 173.176 3.56763C172.535 3.56763 172.015 4.0876 172.015 4.72903C172.015 5.37045 172.535 5.89043 173.176 5.89043Z" fill="#E0E0E0"/>
<path d="M173.537 7.92407H172.819V24.3668H173.537V7.92407Z" fill="#E0E0E0"/>
<path d="M212.876 201.488C212.876 201.56 166.555 201.613 109.434 201.613C52.3132 201.613 5.98242 201.56 5.98242 201.488C5.98242 201.416 52.2939 201.363 109.434 201.363C166.574 201.363 212.876 201.421 212.876 201.488Z" fill="#263238"/>
<path d="M60.8577 24.627C63.1303 27.4081 64.3608 30.8953 64.3371 34.4868C64.313 36.5205 63.9371 38.7614 65.1226 40.4143C66.0189 41.6673 67.6574 42.2986 68.3851 43.6576C69.2622 45.2912 68.5152 47.3586 69.055 49.1321C69.8164 51.6476 72.7657 52.703 74.515 54.6644C75.2607 55.5317 75.7824 56.5686 76.0344 57.6843C76.2865 58.8 76.2612 59.9605 75.9607 61.0641C75.642 62.1632 75.0656 63.1703 74.2794 64.0018C73.4932 64.8332 72.5199 65.4651 71.4404 65.8447C70.2877 66.2991 69.002 66.2783 67.8646 65.7869C66.684 65.1989 65.937 63.9893 65.3587 62.8087C64.1973 60.4859 53.9953 47.9321 53.417 45.3973" fill="#263238"/>
<path d="M53.4363 21.6681C49.263 20.9934 45.2439 23.7644 43.4945 27.61C41.7452 31.4557 41.6874 35.8025 41.5669 40.0433C41.4464 44.2841 41.138 48.6791 38.9839 52.3127C37.6153 54.6211 35.4948 56.6499 35.1623 59.3052C34.8635 61.6859 36.0972 64.0858 35.6876 66.4519C35.331 68.5145 33.76 70.3072 33.8226 72.3939C33.8997 74.9095 36.4876 76.8034 38.9983 76.8708C41.5091 76.9383 43.8608 75.6227 45.8318 74.0613C49.0431 71.5116 51.6128 68.2454 53.3351 64.5243" fill="#263238"/>
<path d="M46.5687 31.6148C46.4376 30.565 46.5187 29.4996 46.8073 28.4817C47.0958 27.4639 47.5859 26.5144 48.2485 25.6896C48.911 24.8648 49.7325 24.1815 50.6641 23.6803C51.5958 23.1791 52.6187 22.8701 53.672 22.7718C57.8791 22.3669 61.6235 25.5042 62.2548 29.6872C62.809 33.3545 63.2813 37.0556 63.2669 38.4001C63.2138 42.4529 60.8573 44.0288 59.8935 44.5059C59.5468 44.6303 59.1883 44.7191 58.8237 44.7709V44.7709V44.7998L59.72 49.4551C60.1296 52.5056 58.4285 55.238 55.3828 55.6669C52.3372 56.0958 49.9421 53.7682 49.4746 50.7177L46.5687 31.6148Z" fill="#FFBE9D"/>
<path d="M61.4263 31.4605C61.3589 31.5568 60.8239 31.2725 60.1396 31.3737C59.4553 31.4749 58.9975 31.8894 58.9108 31.8171C58.824 31.7448 58.9108 31.6243 59.1228 31.4316C59.3863 31.1748 59.7231 31.0064 60.0866 30.9496C60.4432 30.8946 60.8081 30.9555 61.1276 31.1231C61.3685 31.2773 61.4601 31.4219 61.4263 31.4605Z" fill="#263238"/>
<path d="M55.3253 32.9448C55.2578 33.0412 54.7229 32.752 54.0337 32.8532C53.3446 32.9544 52.8964 33.3737 52.8097 33.3014C52.7229 33.2291 52.8097 33.1038 53.0217 32.9159C53.2852 32.6592 53.6221 32.4907 53.9856 32.434C54.3426 32.3831 54.7067 32.4455 55.0265 32.6123C55.2626 32.7617 55.359 32.9014 55.3253 32.9448Z" fill="#263238"/>
<path d="M57.8265 36.6218C58.1712 36.4559 58.5356 36.3345 58.9108 36.2603C59.0843 36.217 59.2433 36.1591 59.2578 36.0338C59.2422 35.8578 59.1752 35.6902 59.065 35.5519L58.347 34.27C57.3494 32.4773 56.6025 30.9931 56.6748 30.9497C56.747 30.9063 57.6386 32.3376 58.6024 34.1303C58.8482 34.5737 59.0843 34.9977 59.2963 35.3977C59.4364 35.5937 59.5045 35.832 59.4891 36.0724C59.4732 36.1381 59.4423 36.1993 59.3989 36.2512C59.3554 36.303 59.3005 36.3441 59.2385 36.3712C59.1446 36.4123 59.0458 36.4414 58.9446 36.4579C58.5806 36.5611 58.2047 36.6161 57.8265 36.6218Z" fill="#263238"/>
<path d="M58.7854 44.7756C58.7854 44.7756 56.1686 45.378 52.564 43.8696C52.564 43.8696 54.1205 47.2189 59.0312 46.0286L58.7854 44.7756Z" fill="#EB996E"/>
<path d="M54.9733 31.1474C54.9348 31.345 54.236 31.3546 53.4457 31.5715C52.6553 31.7883 52.0337 32.0967 51.9035 31.9474C51.8457 31.8751 51.9325 31.6823 52.1686 31.4654C52.4865 31.1935 52.8622 30.9975 53.2672 30.8923C53.6721 30.7871 54.0957 30.7754 54.5059 30.8582C54.8239 30.9305 54.9733 31.0558 54.9733 31.1474Z" fill="#263238"/>
<path d="M60.8623 29.9426C60.7659 30.1161 60.2695 30.0245 59.7009 30.0968C59.1322 30.1691 58.6648 30.357 58.5298 30.2076C58.472 30.1354 58.5298 29.9715 58.713 29.7932C58.9657 29.5692 59.2828 29.4308 59.619 29.398C59.9509 29.358 60.2871 29.4202 60.5828 29.5763C60.8141 29.7065 60.9057 29.8558 60.8623 29.9426Z" fill="#263238"/>
<path d="M53.8363 33.8315C53.8469 33.906 53.8722 33.9778 53.9107 34.0425C53.9493 34.1072 54.0003 34.1636 54.0608 34.2084C54.1213 34.2533 54.1902 34.2856 54.2633 34.3037C54.3365 34.3217 54.4124 34.325 54.4869 34.3134C54.5592 34.305 54.6292 34.2824 54.6927 34.2468C54.7563 34.2111 54.8121 34.1632 54.8569 34.1058C54.9018 34.0484 54.9348 33.9827 54.954 33.9124C54.9732 33.8421 54.9782 33.7688 54.9688 33.6965C54.9462 33.5465 54.865 33.4115 54.7431 33.3212C54.6211 33.2308 54.4683 33.1925 54.3182 33.2146C54.2456 33.2223 54.1752 33.2445 54.1114 33.28C54.0475 33.3154 53.9914 33.3633 53.9465 33.4209C53.9015 33.4784 53.8686 33.5444 53.8497 33.615C53.8307 33.6855 53.8262 33.7591 53.8363 33.8315V33.8315Z" fill="#263238"/>
<path d="M59.9129 32.5158C59.9356 32.6658 60.0167 32.8008 60.1387 32.8911C60.2606 32.9815 60.4134 33.0198 60.5635 32.9977C60.6359 32.9894 60.7059 32.9667 60.7694 32.9311C60.8329 32.8955 60.8888 32.8475 60.9336 32.7901C60.9784 32.7327 61.0114 32.667 61.0306 32.5967C61.0498 32.5265 61.0549 32.4531 61.0454 32.3808C61.0228 32.2308 60.9417 32.0958 60.8197 32.0055C60.6978 31.9151 60.545 31.8768 60.3949 31.8989C60.3222 31.9066 60.2519 31.9289 60.188 31.9643C60.1242 31.9997 60.0681 32.0477 60.0231 32.1052C59.9782 32.1628 59.9453 32.2288 59.9263 32.2993C59.9074 32.3698 59.9028 32.4435 59.9129 32.5158Z" fill="#263238"/>
<path d="M58.9059 37.9519C58.7167 37.893 58.5129 37.9022 58.3298 37.9779C58.1467 38.0536 57.9959 38.191 57.9035 38.3663C57.8153 38.5273 57.7795 38.7117 57.801 38.894C57.8226 39.0763 57.9006 39.2473 58.024 39.3832C58.1553 39.5122 58.3282 39.5903 58.5119 39.6035C58.6955 39.6168 58.8779 39.5643 59.0263 39.4554C59.2122 39.2862 59.3246 39.051 59.3396 38.8C59.3723 38.57 59.3173 38.336 59.1854 38.1446C59.1177 38.0511 59.021 37.9825 58.9104 37.9493C58.7998 37.9162 58.6813 37.9205 58.5733 37.9615" fill="#EB996E"/>
<path d="M61.7202 26.386C61.3419 24.8592 60.398 23.5329 59.0793 22.6753C58 21.8956 56.7178 21.4454 55.3879 21.379C54.0498 21.3213 52.7433 21.7961 51.7543 22.6994C51.0525 23.395 50.6512 24.3378 50.6363 25.3258L50.7134 24.6511C50.5109 25.2001 50.5109 25.8033 50.7134 26.3523V26.3523C50.8242 26.6462 50.9592 26.945 51.0748 27.239C51.4198 28.0885 52.0598 28.7849 52.8772 29.2004C53.2473 29.3989 53.6619 29.5001 54.0819 29.4943C54.2922 29.4901 54.499 29.44 54.688 29.3477C54.8769 29.2553 55.0434 29.1228 55.1759 28.9594C55.4751 28.437 55.5679 27.8216 55.4361 27.2342C55.7523 27.8146 56.2036 28.3105 56.7517 28.6799C57.0316 28.8588 57.3645 28.9358 57.6945 28.898C58.0245 28.8603 58.3314 28.7101 58.5637 28.4727C58.9589 27.9908 58.8047 27.2293 58.5637 26.6318C58.9365 27.1954 59.4588 27.6443 60.0721 27.9281C60.2335 28.0207 60.4123 28.0788 60.5973 28.0987C60.7823 28.1186 60.9694 28.0999 61.1467 28.0438C61.2885 27.9734 61.4125 27.8718 61.5094 27.7466C61.6062 27.6214 61.6734 27.4758 61.7058 27.3209C61.7773 27.0139 61.7822 26.6951 61.7202 26.386Z" fill="#263238"/>
<path d="M58.2361 27.6678C58.1927 27.6678 58.2024 27.0944 58.0144 26.2221C57.7976 25.063 57.2149 24.004 56.3518 23.2005C55.8775 22.7692 55.3052 22.4599 54.6844 22.2994C54.176 22.1746 53.6466 22.1614 53.1327 22.2608C52.659 22.3715 52.2065 22.5587 51.793 22.815C51.793 22.815 51.8749 22.6945 52.0869 22.5403C52.3913 22.3274 52.7329 22.1738 53.0941 22.0873C53.6346 21.9608 54.197 21.9608 54.7374 22.0873C55.4034 22.2536 56.0166 22.5851 56.5205 23.0511C57.4242 23.8877 58.0143 25.0084 58.1927 26.2269C58.2501 26.5871 58.2791 26.9513 58.2795 27.316C58.2854 27.4349 58.2708 27.554 58.2361 27.6678V27.6678Z" fill="#455A64"/>
<path d="M102.62 83.8537L84.0903 76.5046C84.0903 76.5046 74.6015 64.0569 74.7991 63.8159L68.1343 71.112L77.8207 84.2152L100.273 89.4776L104.128 88.4078C103.28 84.3164 102.62 83.8537 102.62 83.8537Z" fill="#FFBE9D"/>
<path d="M62.2359 48.3417L59.7107 47.3779L48.8099 48.761V50.6886L48.4967 50.7272C46.1469 51.2268 43.8931 52.1023 41.8222 53.3199C39.8824 54.504 38.3411 56.2413 37.3965 58.3084C36.4518 60.3754 36.147 62.6778 36.5212 64.9194C36.9646 67.676 37.8224 71.0252 39.4801 72.9625C42.6463 76.6684 45.5378 72.0903 45.5378 72.0903C45.5378 72.0903 47.5232 76.6202 47.4076 78.7647C47.3112 80.5622 46.5208 84.3018 46.2654 85.4681C46.2549 85.5147 46.2541 85.5629 46.2628 85.6099C46.2716 85.6569 46.2898 85.7015 46.3164 85.7412C46.3431 85.7809 46.3775 85.8147 46.4176 85.8407C46.4577 85.8666 46.5027 85.8841 46.5498 85.8921L69.5465 90.1474L69.6573 84.5235L68.9248 61.3919L67.8887 52.4091C67.8887 52.4091 67.9225 48.1201 62.2359 48.3417Z" fill="#5E17EB"/>
<path d="M67.5366 50.9153L76.3074 63.5847L69.2474 72.182L67.5366 50.9153Z" fill="#5E17EB"/>
<path d="M69.4305 77.5744C69.399 77.3026 69.3877 77.0287 69.3968 76.7552C69.3968 76.1865 69.3968 75.4396 69.3678 74.5288C69.3252 72.0842 69.1498 69.6438 68.8426 67.2182C68.4811 64.3749 67.9269 61.8353 67.5077 59.9896L66.9969 57.821C66.9228 57.5587 66.868 57.2913 66.833 57.021C66.9426 57.2714 67.0297 57.531 67.0932 57.7969C67.2426 58.2788 67.445 59.0354 67.6763 59.951C68.2986 62.3287 68.7718 64.743 69.0932 67.1796C69.403 69.6154 69.5543 72.0686 69.5462 74.5239C69.5462 75.4878 69.5221 76.2299 69.4932 76.7552C69.4956 77.0296 69.4747 77.3036 69.4305 77.5744V77.5744Z" fill="#263238"/>
<path d="M47.8411 58.3126C47.8411 58.3511 47.1761 58.3463 46.1111 58.3993C44.7214 58.4747 43.3394 58.6535 41.9763 58.9342C40.6136 59.2202 39.2735 59.6052 37.9668 60.086C36.9644 60.4571 36.362 60.7318 36.3428 60.6932C36.4663 60.5964 36.6025 60.5169 36.7476 60.4571C37.0126 60.3125 37.4078 60.1294 37.9042 59.9221C40.5046 58.8483 43.2836 58.2729 46.0966 58.2258C46.6364 58.2258 47.0604 58.2258 47.3737 58.2547C47.5316 58.2497 47.6893 58.2692 47.8411 58.3126Z" fill="#FAFAFA"/>
<path d="M68.1536 64.1101C67.8012 64.2382 67.4333 64.3192 67.0597 64.3511C65.2777 64.6112 63.4723 64.6726 61.6768 64.5342C61.3018 64.5277 60.9292 64.4726 60.5684 64.3703C60.9403 64.3373 61.3144 64.3373 61.6864 64.3703C62.3707 64.3703 63.3201 64.3703 64.3658 64.3703C65.4116 64.3703 66.3561 64.2643 67.0404 64.2017C67.4079 64.1375 67.7805 64.1068 68.1536 64.1101Z" fill="#FAFAFA"/>
<path d="M72.1775 58.3799C71.6463 58.9937 71.0098 59.5077 70.298 59.8979C69.6261 60.3521 68.8763 60.6789 68.0861 60.8617C68.0572 60.7943 69.0499 60.3798 70.1679 59.6666C71.2859 58.9534 72.1293 58.3221 72.1775 58.3799Z" fill="#FAFAFA"/>
<path d="M68.6353 52.5054C67.1149 53.8732 65.1776 54.6881 63.1367 54.8186C63.1367 54.7415 64.462 54.5391 65.9848 53.8885C67.5076 53.2379 68.5871 52.4428 68.6353 52.5054Z" fill="#FAFAFA"/>
<path d="M69.1127 73.9216C68.971 74.0169 68.819 74.0961 68.6597 74.1577C68.3561 74.3023 67.9176 74.4806 67.3586 74.6878C65.9062 75.2097 64.407 75.5906 62.8816 75.8251C61.3564 76.0606 59.8117 76.1461 58.2698 76.0805C57.677 76.0564 57.1999 76.0131 56.8722 75.9697C56.7006 75.9583 56.5309 75.9276 56.3662 75.8781C56.3662 75.8348 57.0987 75.8781 58.2938 75.907C61.3578 75.9356 64.4062 75.4669 67.32 74.5192C68.4188 74.1577 69.0983 73.883 69.1127 73.9216Z" fill="#FAFAFA"/>
<path d="M69.2908 80.4517C69.2908 80.4517 69.2234 80.4999 69.0836 80.5721L68.4668 80.842C67.9367 81.0926 67.1511 81.4203 66.168 81.8058C65.1849 82.1914 63.9946 82.5624 62.6549 82.9287C59.7424 83.713 56.7529 84.1768 53.7396 84.3118C52.3517 84.3648 51.1036 84.3599 50.053 84.3118C49.0024 84.2636 48.1591 84.1865 47.576 84.1045L46.9061 84.013C46.8272 84.0072 46.7494 83.991 46.6748 83.9648C46.753 83.9523 46.8327 83.9523 46.9109 83.9648L47.5856 84.0082C48.1687 84.0563 49.0313 84.1045 50.0578 84.1334C51.0843 84.1624 52.3517 84.1334 53.73 84.0853C55.1082 84.0371 56.6214 83.8636 58.1973 83.6033C59.7731 83.3431 61.2574 83.0299 62.5971 82.6925C63.9368 82.3552 65.1223 81.9745 66.1054 81.6227C67.0885 81.2709 67.8885 80.9769 68.4282 80.7553L69.0547 80.5095C69.1312 80.482 69.2103 80.4626 69.2908 80.4517V80.4517Z" fill="#FAFAFA"/>
<path d="M27.0227 182.9L24.4155 194.673L19.6591 203.391C19.5782 203.54 19.5287 203.704 19.5137 203.873C19.4986 204.041 19.5184 204.211 19.5717 204.372C19.625 204.533 19.7107 204.681 19.8235 204.808C19.9364 204.934 20.074 205.036 20.2277 205.107V205.107C20.4063 205.189 20.6018 205.227 20.798 205.217C20.9942 205.208 21.1854 205.152 21.3554 205.054C23.5625 203.782 31.6634 199.044 31.8032 198.172C31.9719 197.165 35.379 185.936 35.379 185.936L27.0227 182.9Z" fill="#5E17EB"/>
<g opacity="0.6">
<path opacity="0.6" d="M20.2275 205.107L32.0006 197.396L31.8753 197.878C31.7723 198.308 31.5194 198.688 31.1621 198.948C30.1982 199.637 27.514 201.488 21.3938 205.064C21.218 205.167 21.0196 205.224 20.8161 205.232C20.6126 205.24 20.4104 205.197 20.2275 205.107V205.107Z" fill="white"/>
</g>
<g opacity="0.6">
<path opacity="0.6" d="M30.5215 193.016C30.3515 193.087 30.2137 193.218 30.1345 193.384C30.0553 193.551 30.0404 193.74 30.0926 193.917C30.157 194.089 30.2847 194.23 30.4497 194.31C30.6146 194.391 30.8041 194.406 30.9794 194.351C31.1614 194.275 31.3088 194.135 31.3926 193.957C31.4764 193.778 31.4906 193.575 31.4324 193.387C31.347 193.216 31.1996 193.085 31.0204 193.019C30.8412 192.954 30.6437 192.96 30.4685 193.035" fill="white"/>
</g>
<path d="M24.1603 200.644C23.9659 200.211 23.6931 199.817 23.3555 199.483C22.9668 199.212 22.5302 199.017 22.0688 198.909C22.0688 198.876 22.2375 198.823 22.5218 198.852C22.8918 198.899 23.24 199.053 23.5242 199.295C23.8106 199.527 24.0218 199.839 24.1314 200.191C24.2133 200.466 24.1892 200.644 24.1603 200.644Z" fill="#263238"/>
<path d="M22.941 202.008C22.8735 202.047 22.5892 201.575 22.0254 201.252C21.6657 201.085 21.2954 200.941 20.917 200.823C21.125 200.755 21.3463 200.737 21.5625 200.771C21.7787 200.806 21.9837 200.891 22.1603 201.021C22.8013 201.392 23.0085 201.994 22.941 202.008Z" fill="#263238"/>
<path d="M26.2034 199.016C25.7936 198.561 25.3489 198.139 24.8734 197.753C24.3494 197.434 23.8016 197.155 23.2349 196.92C23.8866 196.906 24.5219 197.125 25.0276 197.536C25.585 197.872 26.0026 198.397 26.2034 199.016Z" fill="#263238"/>
<path d="M27.2972 195.503C27.249 195.565 26.6659 195.136 25.8515 194.9C25.0371 194.664 24.2997 194.703 24.2949 194.621C24.8313 194.482 25.3952 194.49 25.9271 194.646C26.459 194.801 26.939 195.097 27.3165 195.503H27.2972Z" fill="#263238"/>
<path d="M28.1502 192.067C27.6801 191.776 27.1726 191.551 26.6418 191.397C26.0949 191.322 25.5405 191.322 24.9937 191.397C24.9937 191.368 25.143 191.252 25.4515 191.161C25.8569 191.05 26.2824 191.037 26.6941 191.12C27.1058 191.204 27.4922 191.383 27.8225 191.642C28.0682 191.874 28.1694 192.047 28.1502 192.067Z" fill="#263238"/>
<path d="M26.8205 190.746C26.8208 190.593 26.8537 190.442 26.9168 190.303C27.0534 189.905 27.2699 189.539 27.553 189.228C27.7382 188.982 27.9987 188.802 28.2951 188.717C28.396 188.701 28.4996 188.715 28.5923 188.758C28.6851 188.801 28.7629 188.871 28.8156 188.958C28.9041 189.138 28.923 189.344 28.8686 189.537C28.745 189.923 28.4909 190.255 28.1498 190.475C27.8087 190.694 27.4018 190.789 26.9988 190.741C26.6013 190.685 26.2295 190.512 25.9302 190.244C25.6309 189.977 25.4175 189.627 25.3169 189.238C25.2938 189.139 25.2917 189.037 25.3108 188.937C25.3299 188.837 25.3697 188.743 25.4277 188.66C25.4943 188.582 25.5839 188.527 25.6836 188.504C25.7832 188.481 25.8877 188.49 25.9819 188.529C26.2543 188.665 26.4868 188.87 26.6566 189.122C26.912 189.457 27.1062 189.833 27.2301 190.235C27.2888 190.379 27.3167 190.533 27.312 190.688C27.1177 190.169 26.8464 189.682 26.5072 189.243C26.3493 189.037 26.1444 188.872 25.9097 188.761C25.858 188.738 25.8006 188.733 25.7458 188.746C25.6911 188.759 25.642 188.79 25.606 188.833C25.5724 188.89 25.5507 188.953 25.5424 189.018C25.5341 189.084 25.5394 189.15 25.5579 189.214C25.6584 189.541 25.8492 189.833 26.1084 190.056C26.3676 190.28 26.6846 190.425 27.0229 190.476C27.3637 190.516 27.7079 190.439 27.9994 190.258C28.2908 190.077 28.5123 189.802 28.6276 189.479C28.6743 189.348 28.6743 189.205 28.6276 189.074C28.6003 189.025 28.5582 188.985 28.5072 188.961C28.4562 188.937 28.3988 188.929 28.3433 188.939C28.0921 189.008 27.8683 189.153 27.7024 189.354C27.3327 189.765 27.0346 190.236 26.8205 190.746V190.746Z" fill="#263238"/>
<g opacity="0.3">
<path opacity="0.3" d="M26.7045 184.177L26.1406 186.876L34.6656 188.293L35.3788 185.936L27.0081 182.9L26.7045 184.177Z" fill="black"/>
</g>
<path d="M65.0936 187.257L64.39 196.664C64.39 196.664 73.7198 200.519 73.7584 202.293L55.4458 201.584L55.9277 186.876L65.0936 187.257Z" fill="#5E17EB"/>
<g opacity="0.6">
<path opacity="0.6" d="M58.7759 195.652C58.5981 195.7 58.444 195.811 58.3428 195.965C58.2415 196.118 58.2002 196.304 58.2265 196.486C58.267 196.665 58.3743 196.822 58.5265 196.925C58.6787 197.028 58.8643 197.069 59.0457 197.04C59.2347 196.99 59.3985 196.871 59.5053 196.708C59.6121 196.544 59.6544 196.346 59.624 196.153C59.5631 195.97 59.4338 195.818 59.2632 195.728C59.0925 195.638 58.8937 195.618 58.7084 195.671" fill="white"/>
</g>
<g opacity="0.6">
<path opacity="0.6" d="M55.4551 201.584L55.5611 200.1L73.0785 201.319C73.0785 201.319 73.8833 201.705 73.7676 202.283L55.4551 201.584Z" fill="white"/>
</g>
<path d="M64.6985 196.582C64.6985 196.673 64.2455 196.698 63.7973 196.967C63.3492 197.237 63.0986 197.604 63.0166 197.565C62.9347 197.526 63.0889 197.016 63.6383 196.698C64.1877 196.38 64.7226 196.5 64.6985 196.582Z" fill="#263238"/>
<path d="M66.5876 197.464C66.5876 197.556 66.2117 197.691 65.8937 198.057C65.5756 198.423 65.4744 198.818 65.3829 198.813C65.2913 198.809 65.2576 198.298 65.6624 197.85C66.0672 197.401 66.5876 197.368 66.5876 197.464Z" fill="#263238"/>
<path d="M67.5897 199.792C67.5078 199.792 67.4018 199.353 67.6476 198.876C67.8933 198.399 68.3222 198.216 68.356 198.293C68.3897 198.37 68.1247 198.621 67.9271 199.016C67.7295 199.411 67.6765 199.787 67.5897 199.792Z" fill="#263238"/>
<path d="M64.6118 194.423C64.5733 194.5 64.1685 194.361 63.648 194.375C63.1276 194.39 62.742 194.534 62.6842 194.457C62.6264 194.38 63.0312 194.076 63.648 194.067C64.2649 194.057 64.6697 194.356 64.6118 194.423Z" fill="#263238"/>
<g opacity="0.3">
<path opacity="0.3" d="M64.9635 189.122L64.8382 190.799L55.8506 190.365L55.9132 188.428L64.9635 189.122Z" fill="black"/>
</g>
<path d="M64.7323 192.52C64.4295 192.593 64.1122 192.579 63.8166 192.481C63.4825 192.412 63.1587 192.3 62.8528 192.149C62.6744 192.061 62.5022 191.961 62.3372 191.85C62.2366 191.788 62.1456 191.712 62.0673 191.623C62.0142 191.554 61.9854 191.47 61.9854 191.382C61.9854 191.295 62.0142 191.21 62.0673 191.141C62.1142 191.08 62.1749 191.032 62.2445 190.999C62.3141 190.966 62.3905 190.951 62.4673 190.953C62.5833 190.958 62.6983 190.978 62.8094 191.011C63.0023 191.068 63.1895 191.142 63.3685 191.233C63.6728 191.382 63.9511 191.579 64.1925 191.816C64.6022 192.226 64.7323 192.568 64.7034 192.582C64.6744 192.597 64.4672 192.322 64.048 191.98C63.8018 191.787 63.5332 191.626 63.248 191.498C63.078 191.428 62.9042 191.366 62.7275 191.315C62.5348 191.257 62.3709 191.252 62.3179 191.315C62.2649 191.378 62.3179 191.363 62.3179 191.421C62.3757 191.485 62.4422 191.54 62.5155 191.585C62.6701 191.692 62.831 191.791 62.9974 191.879C63.2753 192.032 63.5674 192.158 63.8697 192.255C64.1631 192.322 64.4514 192.411 64.7323 192.52V192.52Z" fill="#263238"/>
<path d="M64.6116 192.645C64.4514 192.375 64.379 192.062 64.4044 191.749C64.4063 191.41 64.4615 191.073 64.5682 190.751C64.6374 190.563 64.7228 190.38 64.8236 190.207C64.8778 190.087 64.9616 189.984 65.067 189.906C65.1725 189.829 65.2961 189.779 65.426 189.763C65.5083 189.769 65.5873 189.797 65.6539 189.846C65.7205 189.894 65.7718 189.961 65.8019 190.038C65.8438 190.146 65.8697 190.26 65.879 190.375C65.9107 190.58 65.9107 190.788 65.879 190.992C65.8146 191.333 65.6673 191.652 65.4501 191.922C65.0742 192.404 64.6983 192.476 64.6887 192.447C64.679 192.419 64.9778 192.24 65.2718 191.792C65.4405 191.536 65.5507 191.247 65.5947 190.944C65.6191 190.768 65.6191 190.59 65.5947 190.414C65.5706 190.221 65.5031 190.057 65.4308 190.076C65.3585 190.096 65.1802 190.211 65.0983 190.366C65.0042 190.52 64.9221 190.681 64.8525 190.847C64.741 191.138 64.6696 191.443 64.6405 191.753C64.5778 192.293 64.6598 192.645 64.6116 192.645Z" fill="#263238"/>
<path d="M46.1643 85.8053C46.1643 85.8053 43.2728 85.9354 41.3452 95.8242C39.4175 105.713 24.7241 185.84 24.7241 185.84L35.3791 185.936L55.4555 109.756L54.1206 188.307L64.9443 189.136C64.9443 189.136 73.0645 102.253 73.1368 97.1976C73.2331 90.8942 69.614 84.5186 69.614 84.5186L46.1643 85.8053Z" fill="#263238"/>
<path d="M60.8094 84.9619C60.8768 84.9619 59.7684 90.6244 58.3372 97.5783C56.9059 104.532 55.6915 110.161 55.624 110.147C55.5566 110.132 56.6601 104.484 58.0914 97.5301C59.5227 90.5762 60.7564 84.9475 60.8094 84.9619Z" fill="#455A64"/>
<path d="M62.4671 86.3739C62.4671 86.345 62.7562 86.2582 63.0887 86.5522C63.1832 86.6378 63.2579 86.7429 63.3078 86.8602C63.3578 86.9775 63.3816 87.1043 63.3779 87.2317C63.3658 87.3928 63.3082 87.5472 63.2118 87.6769C63.1154 87.8066 62.9841 87.9062 62.8333 87.9642C62.6862 88.031 62.5232 88.0551 62.363 88.0338C62.2029 88.0125 62.0519 87.9466 61.9273 87.8437C61.8341 87.7563 61.7606 87.6501 61.7116 87.5321C61.6625 87.4142 61.6392 87.2871 61.643 87.1594C61.643 86.7161 61.9418 86.5618 61.9466 86.5908C61.8653 86.7677 61.8226 86.9599 61.8213 87.1546C61.8278 87.2525 61.8537 87.348 61.8975 87.4357C61.9414 87.5235 62.0023 87.6015 62.0767 87.6654C62.1718 87.731 62.2818 87.7716 62.3967 87.7835C62.5115 87.7954 62.6276 87.7783 62.7341 87.7336C62.8406 87.689 62.9342 87.6183 63.0062 87.5281C63.0783 87.4379 63.1266 87.331 63.1465 87.2172C63.1536 87.1196 63.1411 87.0215 63.1096 86.9288C63.0782 86.8361 63.0285 86.7507 62.9634 86.6775C62.7273 86.4028 62.4622 86.4125 62.4671 86.3739Z" fill="#455A64"/>
<path d="M62.0092 90.2871C62.0092 90.2582 62.308 90.2871 62.4912 90.6871C62.5377 90.8013 62.5588 90.9242 62.553 91.0474C62.5472 91.1706 62.5146 91.291 62.4574 91.4003C62.3745 91.5302 62.2578 91.6351 62.1199 91.7036C61.9819 91.7722 61.8278 91.8019 61.6742 91.7895C61.5206 91.7771 61.3733 91.7231 61.2481 91.6333C61.1229 91.5435 61.0245 91.4213 60.9635 91.2798C60.925 91.1637 60.9124 91.0405 60.9265 90.9189C60.9407 90.7974 60.9813 90.6804 61.0454 90.5762C61.2719 90.2148 61.5803 90.2244 61.5707 90.2533C61.5611 90.2823 61.3394 90.3497 61.1996 90.6582C61.1289 90.8311 61.1289 91.0249 61.1996 91.1979C61.25 91.2935 61.3236 91.3749 61.4138 91.4344C61.504 91.4939 61.6078 91.5297 61.7155 91.5383C61.8232 91.547 61.9314 91.5282 62.0299 91.4839C62.1285 91.4395 62.2142 91.371 62.2791 91.2846C62.3699 91.1199 62.3924 90.9261 62.3418 90.7449C62.202 90.4172 61.9852 90.3208 62.0092 90.2871Z" fill="#455A64"/>
<path d="M51.7978 86.4704C51.778 86.636 51.7358 86.7981 51.6725 86.9523C51.522 87.3936 51.3333 87.8209 51.1087 88.2294C50.3734 89.5927 49.3114 90.7522 48.0179 91.6042C46.7244 92.4562 45.2397 92.974 43.6969 93.1112C43.2335 93.1515 42.7675 93.1515 42.3042 93.1112C42.1409 93.106 41.979 93.0801 41.8223 93.034C41.8223 92.9859 42.5499 93.0678 43.7017 92.9232C45.2028 92.7411 46.6412 92.2132 47.9039 91.3812C49.1665 90.5492 50.219 89.4357 50.9786 88.1282C51.5424 87.1547 51.7544 86.456 51.7978 86.4704Z" fill="#455A64"/>
<path d="M72.5296 93.5017C72.5296 93.5017 72.4043 93.4439 72.2067 93.309C71.9306 93.1104 71.6726 92.8878 71.4356 92.6439C70.6431 91.8417 70.0247 90.8844 69.6192 89.8321C69.2137 88.7798 69.0298 87.6551 69.0791 86.5285C69.0901 86.1894 69.1337 85.8521 69.2092 85.5213C69.2622 85.2852 69.296 85.1599 69.3152 85.1647C69.3345 85.1695 69.2574 85.69 69.2574 86.5333C69.2582 88.747 70.0808 90.8817 71.5658 92.5234C72.1296 93.1451 72.5537 93.4632 72.5296 93.5017Z" fill="#455A64"/>
<path d="M109.911 93.7812C110.07 93.3956 110.027 93.5499 107.473 91.8535C107.473 91.8535 111.135 94.2631 110.755 93.1161C110.425 92.6817 110.022 92.3082 109.564 92.0126C110.528 92.5812 111.087 92.6439 111.256 92.4125C111.545 92.0126 109.449 90.4849 108.451 89.7958C109.363 90.4482 110.32 91.036 111.314 91.5547C111.906 91.7379 111.622 91.0439 111.222 90.5379C110.822 90.0319 107.719 87.0441 106.885 86.1525C106.806 86.0847 106.742 86.0004 106.698 85.9056C106.654 85.8108 106.632 85.7076 106.632 85.6032C106.632 85.4987 106.654 85.3956 106.698 85.3007C106.742 85.2059 106.806 85.1216 106.885 85.0538C108.379 84.09 109.034 82.5527 109.015 82.0467C108.998 81.9327 108.946 81.827 108.866 81.7446C108.785 81.6623 108.681 81.6075 108.567 81.5883C108.454 81.569 108.337 81.5862 108.234 81.6374C108.131 81.6886 108.047 81.7711 107.993 81.8732C107.616 82.3419 107.177 82.757 106.687 83.1069C106.308 83.4029 105.881 83.6327 105.425 83.7864C104.895 83.9598 102.287 83.8153 101.728 83.531L99.9502 89.5596C99.9502 89.5596 106.403 92.5764 107.627 93.1643C109.131 93.8776 109.8 94.0751 109.911 93.7812Z" fill="#FFBE9D"/>
<path d="M106.311 90.9616C106.258 91.0339 107.097 91.646 108.181 92.3351C109.266 93.0242 110.176 93.5206 110.22 93.4483C110.263 93.376 109.425 92.7592 108.345 92.0749C107.266 91.3905 106.36 90.8701 106.311 90.9616Z" fill="#EB996E"/>
<path d="M106.918 89.7811C106.87 89.8534 107.728 90.557 108.846 91.357C109.964 92.1569 110.889 92.7497 110.938 92.6822C110.986 92.6147 110.133 91.9063 109.01 91.1064C107.887 90.3064 106.971 89.7136 106.918 89.7811Z" fill="#EB996E"/>
<path d="M107.559 88.586C107.511 88.6535 108.311 89.3378 109.347 90.1088C110.383 90.8799 111.275 91.4485 111.313 91.3811C111.352 91.3136 110.566 90.6293 109.53 89.8582C108.494 89.0872 107.612 88.5185 107.559 88.586Z" fill="#EB996E"/>
<path d="M41.9282 66.7507L46.6606 67.011C46.9958 68.3321 47.444 69.6219 48.0003 70.8662C51.8122 64.2544 54.747 55.3921 55.4988 51.8308C55.3928 51.4806 55.2627 51.0855 55.1085 50.6453C54.993 49.98 55.0127 49.2982 55.1663 48.6406C55.2964 47.8502 55.5181 46.7804 55.5807 46.2889C55.788 44.7853 56.0289 44.5443 56.5446 44.7178C57.2578 44.9491 56.2506 48.9442 56.8337 49.0309C57.1518 49.0743 57.5325 47.7057 57.6481 46.5828C57.7638 45.46 58.265 42.0095 58.636 41.7637C59.1806 41.4264 59.6529 41.9613 59.5179 43.0793C59.383 44.1974 59.2047 47.5852 59.7974 47.6286C60.3902 47.6719 60.8721 41.9468 60.8721 41.9468C60.8721 41.9468 60.7805 40.7035 61.4649 40.7324C62.7034 40.7854 61.7395 46.8238 61.6335 47.3972C61.5564 47.7924 62.2022 47.8791 62.26 47.4358C62.3178 46.9924 62.6166 41.7059 63.8744 41.7493C64.8382 41.783 63.1274 46.7226 63.672 47.8695C64.2166 49.0165 64.5924 43.9805 65.5177 44.048C65.8599 44.0769 66.1153 44.1443 65.484 46.9924C64.8679 49.2572 64.1295 51.4869 63.272 53.6717C61.8263 61.575 55.3735 86.856 45.292 82.2297C39.6536 79.6418 37.0176 66.8086 37.0176 66.8086L41.9282 66.7507Z" fill="#FFBE9D"/>
<path d="M63.2813 53.715C63.2896 53.6553 63.3058 53.597 63.3295 53.5416C63.3729 53.4163 63.4259 53.2524 63.4982 53.0596C63.6572 52.6018 63.8741 51.9657 64.1584 51.132C64.4427 50.2983 64.7849 49.2863 65.1222 48.0911C65.2957 47.4984 65.4403 46.8526 65.5704 46.1635C65.6379 45.8165 65.7005 45.4599 65.7439 45.0937C65.7559 44.9124 65.7559 44.7304 65.7439 44.5491C65.7439 44.3612 65.7005 44.207 65.5511 44.2021C65.4017 44.1973 65.2957 44.2889 65.1897 44.4479C65.0937 44.6181 65.0146 44.7972 64.9536 44.9828C64.8186 45.3635 64.7126 45.7683 64.6066 46.178C64.5006 46.5876 64.4042 47.0165 64.2789 47.4502C64.2243 47.6878 64.1262 47.9132 63.9898 48.1152C63.9554 48.1548 63.9102 48.1833 63.8596 48.1972C63.8278 48.2042 63.7948 48.2039 63.7631 48.1964C63.7314 48.1889 63.7018 48.1743 63.6765 48.1538C63.6211 48.103 63.5754 48.0426 63.5416 47.9755C63.4907 47.8571 63.4566 47.7322 63.4404 47.6044C63.4184 46.6324 63.5155 45.6614 63.7295 44.713C63.8114 44.2311 63.8982 43.7491 63.9608 43.2672C63.9897 43.0215 64.0187 42.7853 64.0235 42.5251C64.0283 42.2649 63.9898 41.9902 63.8886 41.9468C63.7873 41.9034 63.5416 42.0384 63.4066 42.2408C63.2734 42.4546 63.1682 42.6845 63.0934 42.9251C62.9291 43.4285 62.805 43.9441 62.7223 44.4672C62.6308 44.9973 62.5585 45.537 62.4958 46.0864C62.4717 46.3611 62.4428 46.6358 62.4187 46.9153L62.3802 47.3346C62.3853 47.4241 62.3707 47.5137 62.3374 47.5969C62.3041 47.6802 62.2529 47.7552 62.1874 47.8165C62.1049 47.8768 62.0053 47.9093 61.9031 47.9093C61.8009 47.9093 61.7013 47.8768 61.6188 47.8165C61.572 47.7856 61.5324 47.7451 61.5025 47.6978C61.4726 47.6504 61.4531 47.5972 61.4453 47.5418C61.438 47.4906 61.438 47.4387 61.4453 47.3876V47.2864L61.5754 46.443C61.6573 45.8744 61.7248 45.3057 61.7778 44.7274C61.8308 44.1491 61.8742 43.566 61.8838 42.9829C61.912 42.4056 61.8536 41.8273 61.7103 41.2673C61.6771 41.1252 61.5909 41.0011 61.4694 40.9203C61.4112 40.9017 61.3487 40.9019 61.2907 40.9209C61.2327 40.9399 61.1822 40.9769 61.1465 41.0264C60.9904 41.3116 60.9265 41.6382 60.9634 41.9613V41.9613C60.8573 43.0937 60.7369 44.207 60.573 45.3009C60.4911 45.8455 60.3995 46.39 60.2646 46.9249C60.226 47.055 60.1875 47.19 60.1393 47.3249C60.0935 47.4885 59.9974 47.6334 59.8646 47.7394C59.8059 47.7682 59.7391 47.7763 59.6752 47.7623C59.6113 47.7483 59.5541 47.713 59.5128 47.6622C59.454 47.6004 59.4095 47.5264 59.3827 47.4454C59.3307 47.3117 59.2935 47.1727 59.2719 47.0309C59.1589 45.9823 59.1492 44.925 59.2429 43.8744C59.3142 43.3847 59.3416 42.8896 59.3249 42.395C59.3093 42.1839 59.2126 41.987 59.055 41.8456C59.018 41.8226 58.9767 41.8073 58.9336 41.8007C58.8906 41.7941 58.8466 41.7962 58.8044 41.807C58.7593 41.8222 58.7158 41.8416 58.6743 41.8649C58.6309 41.9034 58.6357 41.8649 58.6068 41.9468C58.4325 42.3802 58.3049 42.8309 58.2261 43.2913C58.1297 43.7732 58.0478 44.2118 57.9755 44.6648C57.9032 45.1178 57.8358 45.5611 57.7779 46.0045C57.7201 46.4478 57.6912 46.8816 57.6045 47.3153C57.5296 47.739 57.4167 48.1551 57.2671 48.5586C57.2274 48.6613 57.1807 48.7611 57.1274 48.8574C57.0599 48.949 57.0213 49.0646 56.8382 49.1224C56.7914 49.131 56.743 49.1256 56.6993 49.1067C56.6555 49.0878 56.6183 49.0564 56.5924 49.0164C56.5587 48.9608 56.5328 48.9008 56.5153 48.8381C56.4937 48.7333 56.4808 48.627 56.4768 48.52C56.4768 47.696 56.5876 46.9442 56.631 46.2165C56.6624 45.8686 56.6624 45.5186 56.631 45.1708C56.631 45.0166 56.5587 44.8334 56.472 44.7997C56.4112 44.7699 56.3444 44.7544 56.2768 44.7544C56.2091 44.7544 56.1424 44.7699 56.0816 44.7997C55.8793 45.0169 55.754 45.2946 55.725 45.59C55.6527 45.884 55.6238 46.1828 55.5708 46.4671C55.3684 47.6044 55.1563 48.5875 55.0551 49.3875C55.0076 49.7393 55.0076 50.0959 55.0551 50.4477C55.1226 50.7368 55.2238 50.9971 55.2768 51.1995C55.3298 51.4019 55.3828 51.5464 55.4166 51.6814C55.4345 51.733 55.4474 51.7863 55.4551 51.8404C55.4262 51.7938 55.4036 51.7435 55.3877 51.691L55.2238 51.2091C55.1564 51.0019 55.0551 50.7706 54.9732 50.4525C54.9217 50.0913 54.9217 49.7246 54.9732 49.3634C55.0648 48.549 55.2576 47.5755 55.4551 46.4334C55.5081 46.1491 55.5371 45.8503 55.5997 45.5418C55.6342 45.3789 55.6777 45.2181 55.7298 45.0599C55.778 44.8847 55.8831 44.7304 56.0286 44.6214C56.1162 44.575 56.2138 44.5507 56.3129 44.5507C56.4121 44.5507 56.5097 44.575 56.5973 44.6214C56.6915 44.6808 56.7689 44.7634 56.822 44.8613C56.8752 44.9592 56.9023 45.069 56.9009 45.1804C56.9346 45.5427 56.9346 45.9073 56.9009 46.2695C56.8671 47.002 56.7515 47.7683 56.7707 48.549C56.7743 48.6413 56.7856 48.7332 56.8045 48.8237C56.8045 48.9152 56.8719 48.9538 56.8623 48.9345C56.8527 48.9152 56.9539 48.8574 56.9924 48.7803C57.0399 48.6948 57.0818 48.6062 57.1177 48.5152C57.2605 48.1246 57.3654 47.7211 57.431 47.3105C57.5129 46.8912 57.5418 46.4575 57.5996 46.0093C57.6575 45.5611 57.7153 45.1178 57.7876 44.66C57.8599 44.2021 57.9418 43.7443 58.0334 43.2769C58.1117 42.7887 58.2476 42.3115 58.4382 41.8552C58.4767 41.7787 58.5349 41.7138 58.6068 41.6673C58.6709 41.6322 58.7388 41.6047 58.8092 41.5854C58.8901 41.5623 58.9749 41.5568 59.058 41.5692C59.1412 41.5817 59.2206 41.6119 59.2911 41.6577C59.403 41.7465 59.4953 41.8573 59.5625 41.9833C59.6296 42.1093 59.6701 42.2478 59.6815 42.3902C59.7177 42.6524 59.7177 42.9183 59.6815 43.1805C59.6574 43.4263 59.6333 43.6624 59.6188 43.9323C59.5249 44.9587 59.5346 45.992 59.6477 47.0165C59.6684 47.1382 59.7007 47.2576 59.7441 47.3731C59.7586 47.4197 59.7833 47.4625 59.8164 47.4984C59.8164 47.4984 59.8164 47.4984 59.8405 47.4984C59.8405 47.6092 59.8405 47.4984 59.8405 47.5418C59.8405 47.5851 59.8405 47.5418 59.8405 47.5032C59.9006 47.4227 59.9478 47.3333 59.9803 47.2382C60.0252 47.1193 60.0638 46.994 60.0959 46.8623C60.226 46.3515 60.3128 45.8117 60.3947 45.272C60.5586 44.1877 60.679 43.0745 60.7802 41.9468V41.9709C60.7374 41.5737 60.8236 41.1732 61.026 40.8288C61.1033 40.7303 61.2093 40.6584 61.3294 40.623C61.4494 40.5876 61.5775 40.5905 61.6959 40.6312C61.7969 40.6873 61.8857 40.7631 61.9569 40.8542C62.0281 40.9452 62.0803 41.0497 62.1103 41.1613C62.2646 41.7539 62.328 42.3665 62.2982 42.9781C62.2982 43.5757 62.2452 44.1636 62.1922 44.7467C62.1392 45.3298 62.0669 45.9033 61.985 46.4719C61.9416 46.7611 61.8983 47.0406 61.8549 47.3249C61.8163 47.5032 61.826 47.508 61.8549 47.561C61.8883 47.5836 61.9278 47.5957 61.9681 47.5957C62.0085 47.5957 62.0479 47.5836 62.0814 47.561C62.1392 47.5177 62.1489 47.4358 62.1633 47.2767L62.1971 46.8575L62.2838 46.0238C62.3416 45.4744 62.4187 44.925 62.5103 44.3901C62.5994 43.8528 62.7283 43.3228 62.8958 42.8046C62.9833 42.5427 63.1014 42.2919 63.2476 42.0576C63.3272 41.9314 63.4322 41.823 63.556 41.7396C63.6247 41.6899 63.7043 41.6574 63.7882 41.6448C63.872 41.6322 63.9577 41.6399 64.0379 41.6673C64.1118 41.7128 64.1741 41.7748 64.2201 41.8483C64.266 41.9219 64.2944 42.0051 64.303 42.0914C64.3229 42.227 64.3309 42.364 64.3271 42.501C64.3271 42.766 64.2934 43.0215 64.2644 43.2769C64.197 43.7588 64.1054 44.2696 64.0187 44.7563C63.8117 45.6718 63.7114 46.6081 63.7199 47.5466C63.7335 47.6474 63.7594 47.7461 63.797 47.8406C63.8145 47.8748 63.8355 47.9071 63.8596 47.9369C63.8596 47.9369 63.8596 47.9369 63.8596 47.9032C63.9678 47.729 64.0475 47.5387 64.0958 47.3394C64.2211 46.9201 64.3223 46.496 64.4331 46.0816C64.5325 45.6692 64.6531 45.2623 64.7945 44.8624C64.8613 44.6643 64.9485 44.4737 65.0548 44.2937C65.1123 44.1956 65.1874 44.109 65.2765 44.0383C65.3249 43.9963 65.3828 43.9665 65.4451 43.9515C65.5074 43.9418 65.5708 43.9418 65.6331 43.9515C65.6988 43.9581 65.7616 43.9821 65.815 44.0211C65.8684 44.0601 65.9104 44.1126 65.9367 44.1732C65.9769 44.2745 65.9982 44.3823 65.9993 44.4913C66.0031 44.6862 65.9918 44.8812 65.9656 45.0744C65.9222 45.4503 65.8499 45.8069 65.7825 46.1587C65.6427 46.8478 65.4885 47.5032 65.3005 48.0863C64.9391 49.2815 64.5777 50.2935 64.2837 51.1175C63.9898 51.9416 63.7392 52.5633 63.5705 53.0066C63.4886 53.209 63.4211 53.3681 63.3729 53.4885C63.3513 53.5674 63.3206 53.6434 63.2813 53.715Z" fill="#EB996E"/>
<path d="M36.9741 67.2952C37.8897 70.5288 39.6825 75.5166 41.6053 80.7887C41.6659 80.9585 41.7755 81.1066 41.9204 81.214C42.0652 81.3215 42.2387 81.3835 42.4188 81.3923C42.5989 81.4011 42.7776 81.3562 42.9322 81.2633C43.0868 81.1704 43.2103 81.0337 43.2871 80.8706L48.0002 70.8999C48.0002 70.8999 46.8629 62.7074 46.9593 63.0014C47.0557 63.2953 37.2344 64.0616 37.2344 64.0616L36.9741 67.2952Z" fill="#5E17EB"/>
<path d="M47.5952 65.6906C47.5952 65.7292 47.0073 65.9027 46.0772 66.2593C44.8617 66.7207 43.6907 67.2917 42.5786 67.9652C41.468 68.6419 40.4197 69.416 39.4462 70.2784C38.6992 70.9386 38.2703 71.3916 38.2414 71.3627C38.2125 71.3338 38.3233 71.2278 38.5064 71.0109C38.7646 70.7095 39.038 70.4216 39.3257 70.1483C40.2756 69.2336 41.3228 68.4256 42.4485 67.7387C43.5745 67.0603 44.77 66.5045 46.0146 66.081C46.3908 65.9514 46.7736 65.842 47.1615 65.7533C47.3018 65.7094 47.4483 65.6882 47.5952 65.6906V65.6906Z" fill="#FAFAFA"/>
<path d="M49.4652 68.1773C49.159 67.8685 48.8934 67.522 48.6749 67.146C48.1121 66.2685 47.6283 65.3428 47.2291 64.3798C46.8297 63.4139 46.5184 62.4139 46.299 61.392C46.1867 60.974 46.13 60.543 46.1304 60.1101C46.2741 60.5142 46.3884 60.9281 46.4725 61.3486C46.7307 62.3465 47.0526 63.3268 47.4363 64.2834C47.8372 65.2351 48.2976 66.1606 48.8146 67.0544C49.0553 67.4144 49.2726 67.7895 49.4652 68.1773Z" fill="#263238"/>
<path d="M52.6072 24.0246C51.7896 25.3721 51.2828 26.885 51.1236 28.4531C50.9643 30.0211 51.1567 31.605 51.6867 33.0893C52.1687 34.4146 52.9397 35.7206 52.8 37.1278C52.6602 38.5349 51.5615 39.9276 51.947 41.3155C52.1783 42.1396 52.8819 42.7613 53.1566 43.5612C53.4698 44.5251 53.1566 45.5419 52.9879 46.5298C52.6024 49.055 53.412 51.5947 53.6096 54.1392C53.8072 56.6836 53.1277 59.6667 50.853 60.7751C50.1639 61.1124 49.2627 61.2088 48.6893 60.6931C47.9568 60.0426 48.1592 58.8667 48.3616 57.9029C50.3567 48.2647 44.1931 38.8578 45.6002 29.104C45.8267 27.5426 46.699 24.8921 47.8218 23.8029C48.9447 22.7138 52.0626 22.8391 53.1228 23.9957" fill="#263238"/>
<path d="M43.1138 51.985C43.1138 51.985 43.4077 51.6381 43.8415 50.9537C44.4501 49.9873 44.8764 48.9174 45.0992 47.7972C45.2446 47.0256 45.2948 46.239 45.2486 45.4552C45.1643 44.5437 45.1306 43.6283 45.1474 42.7131C45.1762 42.2119 45.2685 41.7164 45.4221 41.2384C45.5982 40.7461 45.8209 40.2717 46.0872 39.8216C46.6269 38.9108 47.3064 38.0627 47.9329 37.1567C48.5762 36.3004 49.0237 35.3134 49.2437 34.2652C49.3505 33.2779 49.2935 32.2798 49.075 31.3111C48.8927 30.4108 48.8214 29.4915 48.863 28.5739C48.9203 27.7723 49.0823 26.9817 49.3449 26.2221C49.713 25.12 50.2924 24.1002 51.0508 23.2198C51.2523 22.9805 51.4713 22.7566 51.7062 22.55C51.7807 22.4706 51.8649 22.401 51.9568 22.3428C51.9568 22.3428 51.6339 22.656 51.1231 23.3066C49.9064 24.8168 49.195 26.6711 49.0894 28.6076C49.0572 29.5103 49.1365 30.4134 49.3256 31.2967C49.5555 32.2914 49.6174 33.3175 49.5087 34.3327C49.2803 35.4101 48.8198 36.4247 48.1594 37.3061C47.5281 38.2265 46.8486 39.0699 46.3185 39.9566C46.0577 40.3899 45.8414 40.8484 45.6727 41.3252C45.5203 41.7836 45.4279 42.2598 45.398 42.742C45.3767 43.6471 45.4024 44.5527 45.4751 45.4552C45.5134 46.2548 45.4519 47.0562 45.292 47.8406C45.0505 48.9761 44.5924 50.0544 43.9427 51.0164C43.7667 51.2765 43.5735 51.5244 43.3644 51.7585C43.2894 51.843 43.2053 51.9189 43.1138 51.985V51.985Z" fill="#455A64"/>
<path d="M38.5449 52.703C38.5837 52.5906 38.6338 52.4825 38.6943 52.3801C38.8148 52.1536 38.969 51.8548 39.1762 51.479C39.581 50.6934 40.1834 49.5513 40.7762 48.1056C41.5012 46.4171 41.9033 44.6076 41.9617 42.7708C41.9619 42.2417 41.9216 41.7132 41.8412 41.1902C41.7593 40.6504 41.634 40.1059 41.552 39.5372C41.4518 38.949 41.4649 38.3471 41.5906 37.7638C41.7536 37.165 42.0887 36.6271 42.5544 36.2169C43.4604 35.3928 44.5543 34.8531 45.123 33.8844C45.6157 32.924 45.906 31.8726 45.976 30.7954C46.078 29.8079 46.3013 28.8368 46.641 27.9039C47.4049 25.9013 48.7659 24.182 50.5397 22.9788C50.8224 22.7885 51.117 22.6163 51.4215 22.4632C51.5244 22.4016 51.6344 22.353 51.7492 22.3186C51.7492 22.3186 51.3155 22.5499 50.5975 23.0607C49.5854 23.7829 48.7093 24.6787 48.0096 25.7064C47.5244 26.4109 47.1294 27.1735 46.8338 27.9762C46.509 28.9112 46.2987 29.8821 46.2073 30.8677C46.0627 31.8942 45.9471 33.0411 45.3302 34.0579C44.7134 35.0748 43.5857 35.653 42.7231 36.4675C42.2835 36.8489 41.9666 37.352 41.8123 37.9132C41.6951 38.4651 41.6837 39.0341 41.7785 39.5902C41.8556 40.1444 41.9761 40.6938 42.058 41.2384C42.1414 41.774 42.1801 42.3156 42.1737 42.8576C42.1082 44.7279 41.6845 46.5684 40.9256 48.2791C40.4326 49.4352 39.8726 50.5615 39.2485 51.6524L38.7377 52.409C38.684 52.5136 38.6194 52.6121 38.5449 52.703V52.703Z" fill="#455A64"/>
<path d="M197.99 188.876C198.012 188.806 198.041 188.738 198.076 188.674C198.144 188.529 198.235 188.336 198.346 188.091C198.681 187.338 198.951 186.557 199.151 185.758C199.681 183.686 199.869 180.52 199.084 176.761C198.657 174.711 198.098 172.691 197.411 170.713C196.708 168.568 195.884 166.294 195.214 163.831C194.457 161.263 194.092 158.595 194.129 155.918C194.231 153.118 195.06 150.328 195.97 147.543C196.881 144.757 197.821 142.044 198.1 139.297C198.411 136.663 197.882 133.998 196.587 131.683C195.382 129.462 193.864 127.558 192.732 125.592C191.672 123.765 190.89 121.79 190.414 119.732C189.73 116.752 189.679 113.663 190.265 110.662C190.478 109.564 190.801 108.491 191.228 107.458C191.215 107.53 191.196 107.601 191.171 107.67L190.978 108.282C190.814 108.821 190.597 109.631 190.39 110.691C189.851 113.678 189.932 116.744 190.626 119.698C191.109 121.731 191.894 123.68 192.954 125.481C194.086 127.409 195.609 129.336 196.843 131.567C198.169 133.929 198.713 136.65 198.399 139.341C198.115 142.126 197.17 144.868 196.26 147.649C195.349 150.429 194.529 153.191 194.428 155.942C194.385 158.593 194.743 161.235 195.488 163.778C196.149 166.226 196.958 168.501 197.657 170.655C198.338 172.644 198.885 174.675 199.296 176.737C200.062 180.525 199.845 183.725 199.296 185.802C199.081 186.602 198.792 187.382 198.433 188.129L198.134 188.703C198.093 188.766 198.044 188.824 197.99 188.876V188.876Z" fill="#263238"/>
<path d="M194.274 127.534C194.274 127.534 191.971 120.156 196.105 115.838C196.137 115.803 196.178 115.778 196.224 115.765C196.27 115.753 196.318 115.753 196.363 115.766C196.409 115.779 196.45 115.804 196.481 115.839C196.513 115.874 196.535 115.917 196.544 115.963C196.766 117.183 197.04 120.893 194.274 127.534Z" fill="#5E17EB"/>
<path d="M195.657 118.296C195.65 118.753 195.598 119.208 195.503 119.655C195.348 120.595 195.17 121.693 194.977 122.908C194.785 124.122 194.606 125.226 194.457 126.161C194.415 126.616 194.334 127.068 194.216 127.51C194.171 127.054 194.18 126.595 194.245 126.141C194.322 125.298 194.471 124.141 194.679 122.869C194.886 121.597 195.112 120.46 195.291 119.626C195.361 119.17 195.484 118.724 195.657 118.296Z" fill="#263238"/>
<path d="M196.982 144.936C196.982 144.936 198.394 137.336 204.071 135.457C204.116 135.441 204.164 135.438 204.211 135.448C204.257 135.459 204.299 135.482 204.333 135.515C204.367 135.548 204.392 135.589 204.403 135.635C204.415 135.681 204.413 135.73 204.399 135.775C204.023 136.946 202.534 140.353 196.982 144.936Z" fill="#5E17EB"/>
<path d="M202.524 137.408C202.304 137.81 202.046 138.189 201.753 138.541L199.763 141.167L197.787 143.803C197.538 144.186 197.256 144.545 196.944 144.878C197.12 144.454 197.346 144.052 197.619 143.683C198.1 142.974 198.756 142.02 199.546 140.994C200.336 139.967 201.055 139.066 201.599 138.411C201.87 138.043 202.18 137.707 202.524 137.408V137.408Z" fill="#263238"/>
<path d="M195.45 163.986C195.45 163.986 194.592 156.304 199.479 152.858C199.516 152.829 199.562 152.811 199.609 152.806C199.657 152.802 199.705 152.811 199.747 152.833C199.79 152.854 199.825 152.888 199.849 152.929C199.874 152.971 199.885 153.018 199.884 153.066C199.869 154.304 199.431 157.996 195.45 163.986Z" fill="#5E17EB"/>
<path d="M198.582 155.181C198.493 155.63 198.355 156.068 198.173 156.487L197.035 159.581C196.611 160.738 196.231 161.783 195.908 162.675C195.784 163.114 195.623 163.541 195.426 163.952C195.47 163.495 195.571 163.045 195.725 162.612C195.961 161.803 196.327 160.685 196.775 159.48C197.223 158.275 197.662 157.191 197.994 156.415C198.148 155.985 198.345 155.571 198.582 155.181V155.181Z" fill="#263238"/>
<path d="M199.724 183.156C199.724 183.156 199.146 175.445 204.148 172.178C204.188 172.151 204.233 172.135 204.281 172.133C204.328 172.131 204.375 172.142 204.417 172.165C204.459 172.188 204.493 172.222 204.516 172.263C204.539 172.305 204.551 172.352 204.548 172.4C204.491 173.638 203.922 177.315 199.724 183.156Z" fill="#5E17EB"/>
<path d="M203.156 174.472C203.048 174.917 202.894 175.35 202.698 175.763C202.341 176.64 201.917 177.691 201.45 178.814C200.982 179.937 200.573 180.982 200.216 181.864C200.073 182.299 199.891 182.72 199.671 183.122C199.735 182.666 199.853 182.22 200.023 181.792C200.288 180.992 200.693 179.893 201.185 178.703C201.676 177.513 202.148 176.443 202.51 175.681C202.681 175.256 202.898 174.851 203.156 174.472V174.472Z" fill="#263238"/>
<path d="M190.958 121.052C190.958 121.052 184.125 117.467 183.976 111.496C183.975 111.449 183.987 111.403 184.011 111.362C184.035 111.322 184.069 111.289 184.11 111.266C184.151 111.243 184.197 111.232 184.244 111.234C184.291 111.235 184.336 111.249 184.376 111.274C185.392 111.978 188.216 114.407 190.958 121.052Z" fill="#5E17EB"/>
<path d="M185.397 113.549C185.718 113.877 186.004 114.237 186.25 114.623C186.809 115.39 187.46 116.296 188.178 117.293L190.106 119.953C190.399 120.303 190.661 120.679 190.886 121.076C190.534 120.783 190.218 120.448 189.947 120.079C189.402 119.433 188.689 118.508 187.937 117.462C187.185 116.416 186.525 115.448 186.072 114.739C185.807 114.367 185.58 113.968 185.397 113.549V113.549Z" fill="#263238"/>
<path d="M198.317 136.892C198.317 136.892 191.262 133.736 190.766 127.775C190.762 127.728 190.771 127.681 190.792 127.639C190.813 127.597 190.845 127.561 190.885 127.536C190.925 127.511 190.971 127.498 191.018 127.498C191.065 127.497 191.111 127.51 191.151 127.534C192.206 128.175 195.17 130.42 198.317 136.892Z" fill="#5E17EB"/>
<path d="M192.317 129.741C192.657 130.047 192.964 130.388 193.233 130.758L195.324 133.307L197.421 135.847C197.735 136.179 198.019 136.539 198.269 136.922C197.899 136.649 197.563 136.333 197.267 135.982C196.688 135.365 195.917 134.488 195.103 133.49C194.288 132.493 193.575 131.563 193.074 130.883C192.78 130.532 192.527 130.149 192.317 129.741V129.741Z" fill="#263238"/>
<path d="M194.245 154.574C194.245 154.574 189.426 148.55 191.676 143.008C191.694 142.964 191.724 142.927 191.761 142.899C191.799 142.871 191.844 142.854 191.891 142.85C191.938 142.846 191.985 142.855 192.027 142.876C192.069 142.897 192.104 142.929 192.129 142.969C192.799 144.015 194.404 147.369 194.245 154.574Z" fill="#5E17EB"/>
<path d="M192.163 145.456C192.328 145.884 192.448 146.328 192.52 146.781C192.722 147.707 192.959 148.796 193.219 150C193.479 151.205 193.725 152.29 193.927 153.215C194.056 153.654 194.145 154.104 194.192 154.559C193.981 154.15 193.819 153.716 193.71 153.268C193.474 152.453 193.185 151.34 192.915 150.058C192.645 148.776 192.433 147.649 192.298 146.82C192.204 146.372 192.158 145.914 192.163 145.456V145.456Z" fill="#263238"/>
<path d="M199.064 175.349C199.064 175.349 192.062 172.077 191.667 166.111C191.662 166.063 191.671 166.015 191.692 165.973C191.713 165.93 191.746 165.894 191.787 165.869C191.827 165.844 191.874 165.83 191.922 165.831C191.97 165.831 192.017 165.844 192.057 165.87C193.093 166.53 196.018 168.829 199.064 175.349Z" fill="#5E17EB"/>
<path d="M193.17 168.096C193.502 168.412 193.802 168.759 194.067 169.132L196.115 171.711L198.168 174.289C198.476 174.626 198.754 174.99 198.997 175.378C198.638 175.096 198.314 174.773 198.033 174.414C197.459 173.788 196.708 172.896 195.908 171.884C195.108 170.872 194.414 169.932 193.922 169.243C193.628 168.891 193.376 168.506 193.17 168.096V168.096Z" fill="#263238"/>
<path d="M212.996 144.969C212.996 144.969 212.996 145.027 212.996 145.138C212.996 145.249 212.996 145.432 212.996 145.62C212.996 146.102 212.948 146.714 212.914 147.494C212.827 149.143 212.697 151.441 212.548 154.188C212.066 156.983 210.62 160.082 208.693 163.094C207.29 165.311 205.801 167.325 204.548 169.2C203.405 170.845 202.377 172.568 201.474 174.356C200.875 175.564 200.391 176.826 200.028 178.125C199.907 178.582 199.811 178.944 199.758 179.19C199.735 179.318 199.701 179.443 199.657 179.566C199.658 179.436 199.675 179.306 199.705 179.18C199.739 178.929 199.811 178.563 199.922 178.096C200.246 176.775 200.706 175.491 201.295 174.265C202.191 172.462 203.217 170.727 204.365 169.074C205.628 167.185 207.088 165.166 208.485 162.964C210.389 159.966 211.806 156.916 212.341 154.164C212.533 151.422 212.692 149.128 212.822 147.48C212.885 146.699 212.938 146.078 212.977 145.61C212.977 145.417 213.01 145.254 213.025 145.128C213.009 145.077 212.999 145.023 212.996 144.969V144.969Z" fill="#263238"/>
<path d="M208.828 162.54C208.828 162.54 211.792 155.408 208.066 150.728C208.038 150.691 207.999 150.662 207.954 150.645C207.91 150.629 207.862 150.625 207.816 150.634C207.769 150.643 207.726 150.664 207.691 150.696C207.656 150.728 207.631 150.77 207.618 150.815C207.286 152.01 206.674 155.678 208.828 162.54Z" fill="#5E17EB"/>
<path d="M208.288 153.22C208.416 153.66 208.495 154.112 208.524 154.569C208.63 155.408 208.746 156.569 208.837 157.856C208.929 159.142 208.972 160.309 208.972 161.157C209.001 161.615 208.974 162.074 208.89 162.525C208.807 162.076 208.767 161.619 208.77 161.162C208.707 160.198 208.63 159.104 208.548 157.875C208.466 156.646 208.389 155.533 208.322 154.588C208.266 154.134 208.254 153.676 208.288 153.22V153.22Z" fill="#263238"/>
<g opacity="0.3">
<path opacity="0.3" d="M208.828 162.54C208.828 162.54 211.792 155.408 208.066 150.728C208.038 150.691 207.999 150.662 207.954 150.645C207.91 150.629 207.862 150.625 207.816 150.634C207.769 150.643 207.726 150.664 207.691 150.696C207.656 150.728 207.631 150.77 207.618 150.815C207.286 152.01 206.674 155.678 208.828 162.54Z" fill="black"/>
</g>
<path d="M199.647 179.739C199.647 179.739 202.023 172.385 197.927 168.029C197.895 167.994 197.855 167.969 197.809 167.956C197.764 167.943 197.716 167.942 197.671 167.955C197.625 167.967 197.584 167.992 197.552 168.026C197.52 168.061 197.498 168.103 197.488 168.149C197.257 169.364 196.944 173.074 199.647 179.739Z" fill="#5E17EB"/>
<path d="M198.351 170.477C198.518 170.905 198.634 171.352 198.698 171.807C198.872 172.631 199.079 173.783 199.276 175.055C199.474 176.327 199.609 177.489 199.681 178.332C199.744 178.787 199.752 179.248 199.705 179.706C199.591 179.263 199.513 178.812 199.474 178.356C199.334 177.417 199.17 176.318 198.992 175.099C198.814 173.879 198.64 172.781 198.51 171.841C198.412 171.393 198.359 170.936 198.351 170.477Z" fill="#263238"/>
<g opacity="0.3">
<path opacity="0.3" d="M199.647 179.739C199.647 179.739 202.023 172.385 197.927 168.029C197.895 167.994 197.855 167.969 197.809 167.956C197.764 167.943 197.716 167.942 197.671 167.955C197.625 167.967 197.584 167.992 197.552 168.026C197.52 168.061 197.498 168.103 197.488 168.149C197.257 169.364 196.944 173.074 199.647 179.739Z" fill="black"/>
</g>
<path d="M212.606 153.822C212.606 153.822 218.933 149.388 218.297 143.442C218.292 143.395 218.275 143.35 218.246 143.313C218.218 143.276 218.179 143.247 218.135 143.23C218.091 143.213 218.044 143.209 217.998 143.217C217.951 143.225 217.908 143.246 217.873 143.278C216.953 144.107 214.485 146.863 212.606 153.822Z" fill="#5E17EB"/>
<g opacity="0.3">
<path opacity="0.3" d="M212.606 153.822C212.606 153.822 218.933 149.388 218.297 143.442C218.292 143.395 218.275 143.35 218.246 143.313C218.218 143.276 218.179 143.247 218.135 143.23C218.091 143.213 218.044 143.209 217.998 143.217C217.951 143.225 217.908 143.246 217.873 143.278C216.953 144.107 214.485 146.863 212.606 153.822Z" fill="black"/>
</g>
<path d="M217.15 145.663C217.025 146.104 216.848 146.53 216.625 146.931C216.263 147.692 215.738 148.733 215.126 149.87C214.514 151.007 213.926 152.015 213.473 152.728C213.25 153.128 212.98 153.5 212.668 153.836C212.838 153.412 213.048 153.006 213.295 152.622C213.748 151.788 214.283 150.815 214.871 149.73L216.442 146.839C216.639 146.425 216.876 146.031 217.15 145.663Z" fill="#263238"/>
<path d="M202.202 172.448C202.202 172.448 209.835 171.258 211.878 165.639C211.895 165.595 211.899 165.547 211.89 165.501C211.882 165.455 211.861 165.412 211.829 165.378C211.798 165.343 211.758 165.317 211.713 165.304C211.668 165.29 211.62 165.289 211.575 165.301C210.384 165.658 206.934 167.031 202.202 172.448Z" fill="#5E17EB"/>
<g opacity="0.3">
<path opacity="0.3" d="M202.202 172.448C202.202 172.448 209.835 171.258 211.878 165.639C211.895 165.595 211.899 165.547 211.89 165.501C211.882 165.455 211.861 165.412 211.829 165.378C211.798 165.343 211.758 165.317 211.713 165.304C211.668 165.29 211.62 165.289 211.575 165.301C210.384 165.658 206.934 167.031 202.202 172.448Z" fill="black"/>
</g>
<path d="M209.873 167.127C209.564 167.465 209.218 167.767 208.842 168.029C208.182 168.559 207.252 169.262 206.206 170.014C205.16 170.766 204.182 171.407 203.459 171.85C203.082 172.113 202.674 172.328 202.245 172.491C202.587 172.186 202.956 171.914 203.348 171.677L206.037 169.778L208.721 167.85C209.079 167.569 209.465 167.327 209.873 167.127V167.127Z" fill="#263238"/>
<path d="M194.915 186.5L192.688 201.488H206.567L204.77 186.5H194.915Z" fill="#455A64"/>
<path d="M205.329 191.141C205.329 191.223 202.823 191.286 199.734 191.286C196.645 191.286 194.134 191.223 194.134 191.141C195.997 190.998 197.866 190.95 199.734 190.997C201.6 190.95 203.468 190.998 205.329 191.141V191.141Z" fill="#263238"/>
<path d="M205.599 192.336C205.599 192.418 203.011 192.481 199.816 192.481C196.621 192.481 194.033 192.418 194.033 192.336C194.033 192.255 196.621 192.192 199.816 192.192C203.011 192.192 205.599 192.255 205.599 192.336Z" fill="#263238"/>
<path d="M151.63 41.1037C151.63 41.1037 151.5 41.1037 151.25 41.1037C150.884 41.082 150.517 41.082 150.151 41.1037C148.735 41.1866 147.345 41.5126 146.04 42.0675C143.972 42.9344 142.172 44.3367 140.826 46.13C139.996 47.2498 139.378 48.5124 139.004 49.8552C138.161 53.0537 138.616 56.456 140.272 59.3199C140.723 60.1128 141.273 60.8448 141.91 61.4981C142.552 62.1903 143.301 62.7759 144.127 63.233C144.975 63.7101 145.935 63.9514 146.907 63.9317C147.91 63.9197 148.872 63.5309 149.601 62.8426C149.954 62.4732 150.23 62.0379 150.415 61.5616C150.599 61.0853 150.688 60.5774 150.676 60.0668C150.669 59.006 150.332 57.9737 149.712 57.1127C148.464 55.3538 146.44 54.1731 144.286 53.537C142.052 52.9096 139.693 52.8764 137.443 53.4406C136.294 53.7394 135.187 54.1797 134.147 54.7514C133.096 55.344 132.142 56.0931 131.318 56.973C131.12 57.1995 130.894 57.4067 130.715 57.6573L130.171 58.3898C129.84 58.906 129.543 59.4437 129.284 59.9994C128.769 61.1276 128.416 62.3235 128.238 63.551C127.889 66.0034 128.222 68.5047 129.202 70.7797C130.139 73.0026 131.77 74.8624 133.853 76.0807C134.862 76.6575 135.989 76.9985 137.149 77.0782C138.286 77.1419 139.417 76.8704 140.402 76.2976C141.379 75.7575 142.151 74.9107 142.599 73.888C143.022 72.8801 143.051 71.7503 142.681 70.7219C142.3 69.7296 141.677 68.8483 140.869 68.1581C140.085 67.4806 139.181 66.9559 138.204 66.6112C136.299 66.0103 134.26 65.9752 132.335 66.51C130.533 66.9981 128.879 67.9196 127.515 69.1942C126.274 70.3838 125.328 71.8478 124.754 73.4687C123.75 76.2813 123.796 79.3619 124.884 82.1431C125.733 84.2194 127.098 86.0442 128.85 87.4441C129.954 88.3295 131.184 89.0457 132.498 89.5693C132.951 89.738 133.303 89.8633 133.544 89.9308L133.901 90.0464C133.901 90.0464 133.775 90.0223 133.535 89.9549C133.178 89.8596 132.828 89.7454 132.484 89.6127C131.152 89.1122 129.906 88.4065 128.793 87.5212C127.01 86.1223 125.618 84.2885 124.749 82.1961C123.642 79.3886 123.586 76.276 124.59 73.4302C125.165 71.7846 126.121 70.2984 127.381 69.093C128.763 67.7929 130.442 66.8499 132.272 66.3461C134.237 65.7977 136.32 65.8312 138.267 66.4425C139.273 66.7933 140.203 67.3312 141.009 68.028C141.849 68.7408 142.495 69.6541 142.888 70.6833C143.285 71.7578 143.268 72.9412 142.84 74.0037C142.365 75.0666 141.558 75.9474 140.541 76.5144C139.52 77.1094 138.348 77.3941 137.168 77.3337C135.98 77.2507 134.826 76.8981 133.795 76.3024C131.665 75.0671 129.993 73.1751 129.029 70.9098C128.027 68.5931 127.684 66.0453 128.036 63.5462C128.22 62.2938 128.58 61.0738 129.106 59.9223C129.371 59.3548 129.673 58.8058 130.012 58.2789L130.571 57.532C130.749 57.2766 130.98 57.0501 131.183 56.8284C132.027 55.9319 133.002 55.1683 134.074 54.5634C135.139 53.9809 136.272 53.534 137.448 53.2334C139.741 52.6586 142.145 52.6935 144.421 53.3346C146.618 53.99 148.676 55.1899 149.972 57.0115C150.624 57.9085 150.978 58.9871 150.984 60.0957C151.008 61.1868 150.597 62.2424 149.842 63.0306C149.071 63.7543 148.057 64.162 146.999 64.1727C145.987 64.1957 144.988 63.9442 144.108 63.445C143.262 62.9783 142.497 62.3778 141.843 61.6668C141.198 60.9988 140.639 60.2524 140.18 59.4452C138.495 56.5281 138.038 53.0613 138.908 49.807C139.294 48.4487 139.926 47.1729 140.773 46.0433C142.144 44.2363 143.974 42.8301 146.074 41.9711C147.389 41.4269 148.791 41.1202 150.213 41.0651C150.582 41.0408 150.953 41.0408 151.322 41.0651L151.63 41.1037Z" fill="#263238"/>
<path d="M167.721 89.3237H100.152V141.437H167.721V89.3237Z" fill="#5E17EB"/>
<path d="M100.152 89.3237L112.634 100.967H179.055L167.721 89.3237H100.152Z" fill="#5E17EB"/>
<path d="M100.152 89.3236L167.74 89.2031H167.793L167.832 89.2369L179.051 100.759L179.166 100.88L179.373 101.092H179.075L112.653 101.039H112.624L100.152 89.3236L112.682 100.889H112.629L179.051 100.841L178.964 101.053L178.843 100.933L167.629 89.4103L167.716 89.4489L100.152 89.3236Z" fill="#263238"/>
<path d="M120.45 113.356C120.084 113.37 119.738 113.526 119.486 113.792C119.235 114.058 119.097 114.412 119.104 114.778C119.11 115.145 119.261 115.494 119.522 115.75C119.783 116.007 120.135 116.151 120.501 116.151C120.867 116.151 121.219 116.007 121.48 115.75C121.742 115.494 121.892 115.145 121.898 114.778C121.905 114.412 121.768 114.058 121.516 113.792C121.264 113.526 120.918 113.37 120.552 113.356" fill="#263238"/>
<path d="M136.416 113.356C136.052 113.37 135.707 113.527 135.457 113.792C135.206 114.057 135.07 114.41 135.077 114.775C135.084 115.139 135.234 115.487 135.494 115.742C135.754 115.998 136.105 116.141 136.469 116.141C136.834 116.141 137.184 115.998 137.445 115.742C137.705 115.487 137.855 115.139 137.862 114.775C137.869 114.41 137.732 114.057 137.482 113.792C137.231 113.527 136.887 113.37 136.522 113.356" fill="#263238"/>
<path d="M136.508 125.828C136.229 124.763 135.776 123.752 135.168 122.835C134.491 121.855 133.622 121.022 132.614 120.387C131.397 119.58 129.978 119.131 128.519 119.091C127.059 119.05 125.618 119.421 124.359 120.161C123.319 120.741 122.406 121.525 121.675 122.464C121.016 123.347 120.509 124.334 120.176 125.385C120.179 125.306 120.192 125.229 120.214 125.153C120.261 124.936 120.32 124.722 120.393 124.512C120.657 123.738 121.042 123.011 121.535 122.358C122.261 121.375 123.185 120.554 124.248 119.949C125.539 119.178 127.024 118.79 128.527 118.831C130.031 118.872 131.492 119.34 132.739 120.18C133.765 120.839 134.642 121.706 135.313 122.724C135.77 123.404 136.117 124.152 136.339 124.941C136.398 125.155 136.445 125.372 136.479 125.592C136.495 125.67 136.505 125.749 136.508 125.828V125.828Z" fill="#263238"/>
<path opacity="0.5" d="M100.307 89.897L112.258 105.048H167.721V100.966H112.634L100.307 89.897Z" fill="black"/>
<path d="M154.396 141.322C154.329 141.322 154.271 132.257 154.271 121.082C154.271 109.906 154.329 100.841 154.396 100.841C154.464 100.841 154.526 109.901 154.526 121.082C154.526 132.262 154.469 141.322 154.396 141.322Z" fill="#263238"/>
<path d="M165.008 129.505H159.052V136.238H165.008V129.505Z" fill="#F5F5F5"/>
<path d="M100.153 89.3237L86.2832 100.967H100.153V89.3237Z" fill="#5E17EB"/>
<g opacity="0.4">
<path opacity="0.4" d="M100.153 89.3237L86.2832 100.967H100.153V89.3237Z" fill="black"/>
</g>
<path d="M169.716 141.438H92.0273V201.358H169.716V141.438Z" fill="#5E17EB"/>
<path opacity="0.3" d="M169.716 141.438H92.0273V201.358H169.716V141.438Z" fill="black"/>
<path d="M150.252 200.934C150.184 200.934 150.126 187.58 150.126 171.109C150.126 154.637 150.184 141.278 150.252 141.278C150.319 141.278 150.377 154.632 150.377 171.109C150.377 187.585 150.319 200.934 150.252 200.934Z" fill="#263238"/>
<path d="M163.128 187.72H157.172V194.452H163.128V187.72Z" fill="#F5F5F5"/>
<path d="M124.552 141.596H115.728V154.381H124.552V141.596Z" fill="#263238"/>
<path d="M124.552 188.395H115.728V201.18H124.552V188.395Z" fill="#263238"/>
<path d="M169.041 141.438H168.839H168.256L166.015 141.462L157.76 141.5L130.537 141.563L103.304 141.529L95.0537 141.491L92.8129 141.466H92.2249H92.0273H92.2249H92.8129L95.0537 141.442L103.304 141.404L130.537 141.365L157.76 141.404L166.015 141.442L168.256 141.466H168.839L169.041 141.438Z" fill="#263238"/>
<path d="M35.8993 37.6965L27.4369 35.6147H27.4996C25.3146 37.0045 22.7879 37.7634 20.1986 37.8074C18.6658 37.8143 17.1405 37.5918 15.6735 37.1471C13.0944 36.319 10.8063 34.7699 9.07955 32.6828C7.35282 30.5957 6.25967 28.0578 5.92931 25.3693C5.66984 23.3359 5.86085 21.2704 6.48879 19.3191C7.11674 17.3678 8.16624 15.5785 9.56291 14.0781C10.2971 13.2717 11.1199 12.5507 12.0158 11.9288C12.4688 11.6445 12.9218 11.3505 13.3941 11.1047L14.1121 10.7578L14.4687 10.5843L14.8446 10.4493C16.7797 9.69927 18.8555 9.38181 20.9263 9.51926C23.7016 9.69946 26.3615 10.6972 28.5706 12.3866C30.7798 14.0761 32.4394 16.3817 33.3403 19.0129C33.8408 20.4848 34.1044 22.0268 34.121 23.5814C34.1331 26.1649 33.431 28.7016 32.0922 30.9112V30.8341C34.4439 35.0798 35.6294 37.2242 35.8944 37.6965C35.6198 37.2146 34.3909 35.1087 31.9572 30.9064V30.8679V30.8293C33.248 28.641 33.9146 26.141 33.8849 23.6007C33.8625 22.071 33.5957 20.5547 33.0945 19.1093C32.2034 16.5319 30.5718 14.2747 28.4039 12.6203C26.236 10.9659 23.6282 9.98774 20.9071 9.80841C18.877 9.6761 16.8426 9.98859 14.9458 10.724L14.5796 10.8542L14.2278 11.0276L13.5242 11.365C13.0423 11.6108 12.6182 11.8951 12.17 12.1746C11.2914 12.7798 10.4832 13.4813 9.76049 14.2661C8.38936 15.739 7.35878 17.4953 6.74169 19.4107C6.12461 21.3261 5.93611 23.3537 6.18954 25.35C6.63632 29.0073 8.51271 32.3391 11.4086 34.6171C12.7033 35.643 14.1726 36.4266 15.7458 36.9303C17.1864 37.3756 18.6859 37.6014 20.1938 37.6001C22.752 37.5727 25.2532 36.8407 27.4225 35.4846H27.4514H27.5044L35.8993 37.6965Z" fill="#263238"/>
<path d="M18.8299 17.3744L19.2588 24.4585C19.2759 24.7379 19.3946 25.0014 19.5925 25.1994C19.7905 25.3973 20.054 25.516 20.3334 25.5331C20.6274 25.5498 20.9166 25.4531 21.1416 25.2631C21.3666 25.0731 21.5102 24.8041 21.543 24.5115L22.3285 17.413C22.3422 17.286 22.3287 17.1575 22.289 17.0361C22.2492 16.9147 22.1842 16.8032 22.098 16.7088C22.0119 16.6145 21.9067 16.5396 21.7894 16.489C21.6721 16.4384 21.5454 16.4133 21.4177 16.4154H19.6973C19.5766 16.419 19.4578 16.447 19.3482 16.4976C19.2385 16.5482 19.1402 16.6205 19.0592 16.7101C18.9782 16.7996 18.9161 16.9047 18.8767 17.0188C18.8373 17.133 18.8214 17.2539 18.8299 17.3744V17.3744Z" fill="#5E17EB"/>
<path d="M22.2033 29.4897C22.0955 29.8133 21.8941 30.0976 21.6247 30.3069C21.3553 30.5161 21.0299 30.6407 20.6897 30.6651C20.3494 30.6894 20.0096 30.6124 19.7132 30.4436C19.4167 30.2749 19.1769 30.0221 19.0241 29.7171C18.8713 29.4122 18.8123 29.0688 18.8546 28.7303C18.8969 28.3918 19.0386 28.0735 19.2618 27.8155C19.4849 27.5576 19.7795 27.3715 20.1084 27.2809C20.4373 27.1904 20.7856 27.1993 21.1094 27.3066C21.3246 27.378 21.5237 27.4911 21.6953 27.6394C21.8668 27.7878 22.0074 27.9686 22.109 28.1713C22.2106 28.3741 22.2712 28.5949 22.2874 28.8211C22.3036 29.0473 22.275 29.2745 22.2033 29.4897Z" fill="#5E17EB"/>
</svg>
